<mxfile host="app.diagrams.net" modified="2023-08-17T07:05:17.684Z" agent="Mozilla/5.0 (Macintosh; Intel Mac OS X 10_15_7) AppleWebKit/537.36 (KHTML, like Gecko) Chrome/115.0.0.0 Safari/537.36" etag="YCEv7EMHfBK69aHcUeog" version="21.5.2" type="github">
  <diagram name="Page-1" id="vNcc59VQCfEPZOvDmemR">
    <mxGraphModel dx="1194" dy="642" grid="1" gridSize="10" guides="1" tooltips="1" connect="1" arrows="1" fold="1" page="1" pageScale="1" pageWidth="850" pageHeight="1100" math="0" shadow="0">
      <root>
        <mxCell id="0" />
        <mxCell id="1" parent="0" />
        <mxCell id="Pld-RQmMGz8kok_W18LP-1" value="" style="whiteSpace=wrap;html=1;aspect=fixed;" vertex="1" parent="1">
          <mxGeometry x="520" y="360" width="90" height="90" as="geometry" />
        </mxCell>
        <mxCell id="Pld-RQmMGz8kok_W18LP-2" value="" style="whiteSpace=wrap;html=1;aspect=fixed;" vertex="1" parent="1">
          <mxGeometry x="520" y="217.5" width="92.5" height="92.5" as="geometry" />
        </mxCell>
        <mxCell id="Pld-RQmMGz8kok_W18LP-3" value="" style="whiteSpace=wrap;html=1;aspect=fixed;" vertex="1" parent="1">
          <mxGeometry x="342.5" y="340" width="120" height="120" as="geometry" />
        </mxCell>
        <mxCell id="Pld-RQmMGz8kok_W18LP-4" value="" style="whiteSpace=wrap;html=1;aspect=fixed;" vertex="1" parent="1">
          <mxGeometry x="520" y="70" width="100" height="100" as="geometry" />
        </mxCell>
        <mxCell id="Pld-RQmMGz8kok_W18LP-5" value="" style="whiteSpace=wrap;html=1;aspect=fixed;" vertex="1" parent="1">
          <mxGeometry x="345" y="200" width="115" height="115" as="geometry" />
        </mxCell>
        <mxCell id="Pld-RQmMGz8kok_W18LP-6" value="" style="whiteSpace=wrap;html=1;aspect=fixed;" vertex="1" parent="1">
          <mxGeometry x="340" y="60" width="120" height="120" as="geometry" />
        </mxCell>
        <mxCell id="Pld-RQmMGz8kok_W18LP-8" value="OUTWARD" style="rounded=1;whiteSpace=wrap;html=1;" vertex="1" parent="1">
          <mxGeometry x="355" y="80" width="70" height="30" as="geometry" />
        </mxCell>
        <mxCell id="Pld-RQmMGz8kok_W18LP-9" value="OUTWARD" style="rounded=1;whiteSpace=wrap;html=1;" vertex="1" parent="1">
          <mxGeometry x="535" y="100" width="70" height="30" as="geometry" />
        </mxCell>
        <mxCell id="Pld-RQmMGz8kok_W18LP-10" value="INWARD" style="rounded=1;whiteSpace=wrap;html=1;" vertex="1" parent="1">
          <mxGeometry x="355" y="130" width="70" height="30" as="geometry" />
        </mxCell>
        <mxCell id="Pld-RQmMGz8kok_W18LP-11" value="OUTWARD" style="rounded=1;whiteSpace=wrap;html=1;" vertex="1" parent="1">
          <mxGeometry x="355" y="217.5" width="70" height="30" as="geometry" />
        </mxCell>
        <mxCell id="Pld-RQmMGz8kok_W18LP-12" value="INWARD" style="rounded=1;whiteSpace=wrap;html=1;" vertex="1" parent="1">
          <mxGeometry x="355" y="270" width="70" height="30" as="geometry" />
        </mxCell>
        <mxCell id="Pld-RQmMGz8kok_W18LP-13" value="OUTWARD" style="rounded=1;whiteSpace=wrap;html=1;" vertex="1" parent="1">
          <mxGeometry x="365" y="360" width="70" height="30" as="geometry" />
        </mxCell>
        <mxCell id="Pld-RQmMGz8kok_W18LP-14" value="RECON" style="rounded=1;whiteSpace=wrap;html=1;" vertex="1" parent="1">
          <mxGeometry x="367.5" y="410" width="70" height="30" as="geometry" />
        </mxCell>
        <mxCell id="Pld-RQmMGz8kok_W18LP-15" value="OUTWARD" style="rounded=1;whiteSpace=wrap;html=1;" vertex="1" parent="1">
          <mxGeometry x="525" y="240" width="70" height="30" as="geometry" />
        </mxCell>
        <mxCell id="Pld-RQmMGz8kok_W18LP-16" value="OUTWARD" style="rounded=1;whiteSpace=wrap;html=1;" vertex="1" parent="1">
          <mxGeometry x="525" y="380" width="70" height="30" as="geometry" />
        </mxCell>
      </root>
    </mxGraphModel>
  </diagram>
</mxfile>
